# xmcd CD database file
#
# Track frame offsets:
#	150
#	19021
#	41849
#	55946
#	88510
#	101611
#	120478
#	133589
#	160629
#	174654
#	188643
#	201233
#	216583
#	228490
#	249945
#
# Disc length: 3528 seconds
#
# Revision: 0
# Processed by: cddbd v1.5.2PL0 Copyright (c) Steve Scherf et al.
# Submitted via: CDex 1.51
#
DISCID=ca0dc60f
DTITLE=Can Atilla - Mevlana'dan Çaðrý
DYEAR=2008
DGENRE=New Age
TTITLE0=Belh - Afganistan 1207
TTITLE1=Rüzgârlar Sustuðunda
TTITLE2=Gevher Banu'nun Aþký
TTITLE3=Maracel Behreyn
TTITLE4=Ateþ'in Daveti
TTITLE5=Þems-i Tebrizi'nin Ardýndan
TTITLE6=Iþýkla Gelen
TTITLE7=Kervan ve Son Yolculuk
TTITLE8=Bir Meltem Esintisi
TTITLE9=1. Gece Melekle Dans
TTITLE10=Göklerin Daveti
TTITLE11=2. Gece Þehvet Dansý
TTITLE12=3. Gece Þeytanla Dans
TTITLE13=Sararmýþ Yýllar
TTITLE14=Yine Gel Ne Olursan Ol
EXTD=YEAR: 2008
EXTT0=
EXTT1=
EXTT2=
EXTT3=
EXTT4=
EXTT5=
EXTT6=
EXTT7=
EXTT8=
EXTT9=
EXTT10=
EXTT11=
EXTT12=
EXTT13=
EXTT14=
PLAYORDER=
